<svg xmlns="http://www.w3.org/2000/svg" viewBox="0 0 1024 1024" role="img" aria-label="ai-fly">
  <!-- ai-fly direction B: node + link. The provider node (solid, bright) takes off
       into a soaring wing-shaped stream across the fabric, gliding level into the
       open port of the consumer machine; the same service re-appears inside as a
       bright spark — "share services, simply". Hue 95 amber family; strokes and
       gaps sit far above 3% of canvas so the silhouette survives 16px. -->
  <defs>
    <linearGradient id="beam" gradientUnits="userSpaceOnUse"
        x1="229.0" y1="653.0" x2="577.7" y2="302.0">
      <stop offset="0" stop-color="#fdd309"/>
      <stop offset="0.55" stop-color="#f5b800"/>
      <stop offset="1" stop-color="#c99700"/>
    </linearGradient>
  </defs>
  <path d="M 281.8 648.0 L 280.6 640.7 L 279.6 633.4 L 278.8 626.0 L 177.0 617.0 L 177.9 606.8 L 179.0 596.7 L 180.4 586.6 L 182.1 576.6 L 184.0 566.6 L 186.2 556.7 L 188.7 546.9 L 191.4 537.2 L 194.4 527.6 L 197.7 518.0 L 201.2 508.6 L 204.9 499.3 L 208.9 490.1 L 213.1 481.0 L 217.5 472.0 L 222.2 463.2 L 227.1 454.5 L 232.3 446.0 L 237.6 437.6 L 243.2 429.4 L 249.0 421.3 L 255.0 413.4 L 261.2 405.7 L 267.5 398.2 L 274.1 390.8 L 280.9 383.6 L 287.8 376.6 L 294.9 369.8 L 302.2 363.3 L 309.7 356.9 L 317.3 350.7 L 325.1 344.7 L 333.0 339.0 L 341.0 333.4 L 349.2 328.1 L 357.6 323.0 L 366.0 318.2 L 374.6 313.5 L 383.2 309.1 L 392.0 305.0 L 400.9 301.0 L 409.9 297.3 L 418.9 293.9 L 428.1 290.7 L 437.3 287.7 L 446.6 285.0 L 455.9 282.6 L 465.3 280.3 L 474.8 278.4 L 484.3 276.7 L 493.8 275.2 L 503.4 274.0 L 513.0 273.0 L 522.6 272.3 L 532.2 271.8 L 541.8 271.6 L 551.4 271.6 L 561.0 271.9 L 570.6 272.4 L 580.2 273.1 A 29.0 29.0 0 0 1 575.1 330.9 L 567.1 330.3 L 559.1 330.0 L 551.1 330.0 L 543.1 330.1 L 535.1 330.5 L 527.1 331.2 L 519.1 332.1 L 511.2 333.2 L 503.3 334.5 L 495.5 336.1 L 487.7 337.9 L 480.0 339.9 L 472.3 342.1 L 464.7 344.5 L 457.2 347.2 L 449.8 350.1 L 442.5 353.2 L 435.3 356.4 L 428.1 359.9 L 421.1 363.6 L 414.2 367.5 L 407.4 371.6 L 400.8 375.8 L 394.2 380.3 L 387.8 384.9 L 381.6 389.7 L 375.5 394.7 L 369.5 399.8 L 363.7 405.1 L 358.1 410.5 L 352.6 416.1 L 347.3 421.9 L 342.2 427.8 L 337.2 433.8 L 332.5 439.9 L 327.9 446.2 L 323.5 452.6 L 319.2 459.1 L 315.2 465.7 L 311.4 472.4 L 307.7 479.2 L 304.3 486.1 L 301.1 493.1 L 298.1 500.2 L 295.2 507.3 L 292.6 514.5 L 290.2 521.8 L 288.0 529.1 L 286.0 536.4 L 284.3 543.8 L 282.7 551.2 L 281.3 558.7 L 280.2 566.2 L 279.3 573.7 L 278.6 581.2 L 278.1 588.7 L 277.8 596.2 L 277.8 603.7 L 277.9 611.1 L 278.3 618.6 L 176.4 627.2 L 176.1 637.4 L 176.0 647.7 L 176.2 658.0 Z" fill="url(#beam)"/>
  <circle cx="229.0" cy="753.0" r="118" fill="#fdd309"/>
  <path d="M 675.6 212.1 A 128.0 128.0 0 1 1 658.5 407.5" fill="none" stroke="#c99700" stroke-width="72"
        stroke-linecap="round"/>
  <circle cx="749.0" cy="317.0" r="44" fill="#fdd309"/>
</svg>
